<?xml version="1.0" encoding="UTF-8"?>
<svg id="_レイヤー_2" data-name="レイヤー 2" xmlns="http://www.w3.org/2000/svg" viewBox="0 0 930.27 226.53">
  <defs>
    <style>
      .cls-1 {
        fill: #fff;
      }
    </style>
  </defs>
  <g id="_レイヤー_1-2" data-name="レイヤー 1">
    <path class="cls-1" d="m596.3,179.07h-47.25c-13.09,0-22.2-12.99-17.76-25.3l33.91-93.86c2.7-7.48,9.8-12.46,17.76-12.46h47.25c13.09,0,22.2,12.99,17.76,25.3l-33.91,93.86c-2.7,7.48-9.8,12.46-17.76,12.46Zm159.28-36.28l42.46-117.5C802.48,12.99,793.36,0,780.28,0h-47.25C725.08,0,717.98,4.98,715.27,12.46l-42.46,117.5c-4.45,12.31,4.67,25.3,17.76,25.3h47.25c7.95,0,15.05-4.98,17.76-12.46Zm40.34,83.74h47.25c7.95,0,15.05-4.98,17.76-12.46l68.21-188.77C933.58,12.99,924.46,0,911.37,0h-47.25C856.17,0,849.07,4.98,846.37,12.46l-68.21,188.77c-4.45,12.31,4.67,25.3,17.76,25.3Zm-312.95-59.92l33.91-93.86c4.45-12.31-4.67-25.3-17.76-25.3h-47.25c-7.95,0-15.05,4.98-17.76,12.46l-33.91,93.86c-4.45,12.31,4.67,25.3,17.76,25.3h47.25c7.95,0,15.05-4.98,17.76-12.46Zm-131.1,0l33.91-93.86c4.45-12.31-4.67-25.3-17.76-25.3h-47.25c-7.95,0-15.05,4.98-17.76,12.46l-33.91,93.86c-4.45,12.31,4.67,25.3,17.76,25.3h47.25c7.95,0,15.05-4.98,17.76-12.46Zm-219.53,59.92h47.25c7.95,0,15.05-4.98,17.76-12.46L265.55,25.3c4.45-12.31-4.67-25.3-17.76-25.3h-47.25c-7.95,0-15.05,4.98-17.76,12.46l-68.21,188.77c-4.45,12.31,4.67,25.3,17.76,25.3Zm-48.44-83.74L126.31,25.41C130.76,13.1,121.64.11,108.56.11h-47.25c-7.95,0-15.05,4.98-17.76,12.46L1.14,129.96c-4.45,12.31,4.67,25.3,17.76,25.3h47.25c7.95,0,15.05-4.98,17.76-12.46Zm581.88,83.74h47.05c7.86,0,14.9-4.87,17.67-12.23h0c4.65-12.35-4.48-25.53-17.67-25.53h-47.05c-7.86,0-14.9,4.87-17.67,12.23h0c-4.65,12.35,4.48,25.53,17.67,25.53Z"/>
  </g>
</svg>